<svg xmlns="http://www.w3.org/2000/svg" width="1920" height="1080" viewBox="0 0 1920 1080" version="1.1"><path d="M 60 332.843 L 60 417.687 80.577 418.370 L 101.155 419.054 105.827 420.060 L 110.500 421.065 112 421.995 L 113.500 422.926 114.064 518.713 L 114.627 614.500 116.360 625 L 118.093 635.500 121.093 646.875 L 124.093 658.250 127.682 667.375 L 131.271 676.500 135.254 684.500 L 139.238 692.500 146.730 703.782 L 154.222 715.064 164.127 725.438 L 174.032 735.813 182.713 742.349 L 191.393 748.886 201.780 755.073 L 212.168 761.261 224.334 766.512 L 236.500 771.763 247.809 775.406 L 259.118 779.050 268.809 781.500 L 278.500 783.949 290 785.903 L 301.500 787.858 314 789.172 L 326.500 790.487 359 790.451 L 391.500 790.415 406.500 788.665 L 421.500 786.915 436.191 783.972 L 450.883 781.030 460.426 777.973 L 469.970 774.916 479.735 770.876 L 489.500 766.836 498 762.240 L 506.500 757.644 513.500 753.188 L 520.500 748.731 528.500 742.477 L 536.500 736.223 544.594 727.862 L 552.688 719.500 558.732 711.315 L 564.776 703.129 569.797 694.315 L 574.819 685.500 578.913 675.869 L 583.008 666.238 585.997 654.869 L 588.985 643.500 591.481 628.487 L 593.977 613.473 594.979 596.987 L 595.982 580.500 595.991 538.750 L 596 497 594 497 L 592 497 592 494.500 L 592 492 594 492 L 596 492 596 456.547 L 596 421.094 599.750 420.050 L 603.500 419.005 622.250 418.345 L 641 417.684 641 332.842 L 641 248 350.500 248 L 60 248 60 332.843 M 85.242 333.250 L 85.500 393.500 96 394.133 L 106.500 394.765 113.271 396.373 L 120.043 397.981 123.840 399.918 L 127.636 401.855 131.262 405.868 L 134.887 409.881 136.657 415.190 L 138.427 420.500 139.041 517 L 139.655 613.500 140.820 620.229 L 141.986 626.958 143.951 635.781 L 145.917 644.604 149.062 653.552 L 152.207 662.500 157.212 672.489 L 162.217 682.478 168.058 690.989 L 173.899 699.500 180.605 706.831 L 187.310 714.162 193.905 719.398 L 200.500 724.633 206.500 728.668 L 212.500 732.703 220 736.800 L 227.500 740.897 237 744.835 L 246.500 748.774 256 751.863 L 265.500 754.952 275.500 757.474 L 285.500 759.996 299 761.945 L 312.500 763.895 327.187 764.948 L 341.875 766 359.687 765.996 L 377.500 765.992 391.500 764.961 L 405.500 763.930 418 761.936 L 430.500 759.941 439 757.949 L 447.500 755.957 455.500 753.330 L 463.500 750.704 472.500 746.768 L 481.500 742.832 490.500 737.783 L 499.500 732.734 507.978 726.635 L 516.456 720.535 523.318 714.061 L 530.180 707.588 537.493 697.880 L 544.806 688.172 548.617 681.357 L 552.428 674.542 556.190 665.405 L 559.952 656.268 562.449 646.384 L 564.946 636.500 566.941 624.500 L 568.936 612.500 569.958 598 L 570.980 583.500 570.990 500.932 L 571 418.363 572.543 413.167 L 574.086 407.972 577.016 404.635 L 579.946 401.297 585.723 398.708 L 591.500 396.119 598 395.067 L 604.500 394.015 610.250 394.008 L 616 394 616 333.500 L 616 273 508.500 273 L 401 273 401 333.500 L 401 394 406.250 394.006 L 411.500 394.012 417 394.919 L 422.500 395.827 428.500 398.062 L 434.500 400.297 438.639 404.406 L 442.779 408.515 444.389 413.939 L 446 419.363 446 503.724 L 446 588.084 444.433 595.792 L 442.866 603.500 439.237 610.907 L 435.607 618.313 430.536 623.507 L 425.465 628.701 417.982 632.261 L 410.500 635.821 404.500 637.049 L 398.500 638.277 387.500 638.256 L 376.500 638.236 369.741 636.630 L 362.982 635.025 357.824 632.411 L 352.665 629.797 347.455 624.869 L 342.244 619.940 338.602 612.720 L 334.961 605.500 333.300 598.500 L 331.638 591.500 331.266 509.099 L 330.893 426.698 331.970 419.753 L 333.048 412.808 334.636 409.654 L 336.224 406.500 339.362 403.165 L 342.500 399.829 345.211 398.409 L 347.922 396.989 355.026 395.494 L 362.131 394 368.565 394 L 375 394 375 333.500 L 375 273 229.992 273 L 84.984 273 85.242 333.250 M 367.269 418.931 L 359.037 419.724 357.519 420.985 L 356 422.245 356.035 502.372 L 356.070 582.500 357.448 590.228 L 358.826 597.955 361.163 602.187 L 363.500 606.418 368.037 609.222 L 372.575 612.025 378.805 613.122 L 385.035 614.220 393.947 613.166 L 402.860 612.112 406.775 610.115 L 410.689 608.118 413.734 604.650 L 416.779 601.183 418.639 595.841 L 420.500 590.500 420.500 506.005 L 420.500 421.509 416.585 420.226 L 412.670 418.944 394.085 418.541 L 375.500 418.137 367.269 418.931" stroke="none" fill="#a40071" fill-rule="evenodd"/><path d="M 1055.200 241.200 L 1054 242.400 1054 258.700 L 1054 275 1037.223 275 L 1020.445 275 1018.223 276.557 L 1016 278.113 1016 294.057 L 1016 310 999.565 310 L 983.130 310 980.565 310.975 L 978 311.950 978 549.500 L 978 787.050 980.250 787.867 L 982.500 788.685 1167 791.017 L 1351.500 793.350 1410 793.417 L 1468.500 793.484 1656 791.113 L 1843.500 788.742 1845.750 787.896 L 1848 787.050 1848 549.500 L 1848 311.950 1845.435 310.975 L 1842.870 310 1826.460 310 L 1810.050 310 1809.775 293.778 L 1809.500 277.557 1807 276.293 L 1804.500 275.029 1783.750 275.015 L 1763 275 1763 259.611 L 1763 244.222 1761.250 242.060 L 1759.500 239.899 1653 240.254 L 1546.500 240.610 1533.500 242.729 L 1520.500 244.847 1509 247.446 L 1497.500 250.044 1484 254.615 L 1470.500 259.187 1460 264.422 L 1449.500 269.657 1441.188 274.818 L 1432.875 279.979 1427.188 284.373 L 1421.500 288.767 1414.750 294.972 L 1408 301.177 1401.250 294.955 L 1394.500 288.734 1387.500 283.460 L 1380.500 278.187 1371 272.418 L 1361.500 266.649 1353.500 262.967 L 1345.500 259.286 1335.574 255.586 L 1325.648 251.886 1312.074 248.555 L 1298.500 245.224 1289 243.642 L 1279.500 242.060 1265.500 241.034 L 1251.500 240.008 1153.950 240.004 L 1056.400 240 1055.200 241.200 M 1062 481.942 L 1062 714.885 1168.750 715.281 L 1275.500 715.677 1286.500 717.784 L 1297.500 719.890 1309.753 723.423 L 1322.007 726.956 1330.753 730.572 L 1339.500 734.188 1351.053 740.073 L 1362.606 745.958 1372.718 752.369 L 1382.830 758.780 1390.941 764.955 L 1399.053 771.130 1398.941 688.565 L 1398.830 606 1398.520 606 L 1398.211 606 1384.218 624.250 L 1370.225 642.500 1364.932 648.500 L 1359.640 654.500 1351.481 665.500 L 1343.322 676.500 1334.849 684.500 L 1326.376 692.500 1320.972 695.430 L 1315.568 698.360 1309.534 698.416 L 1303.500 698.472 1296.712 695.271 L 1289.925 692.070 1284.130 686.542 L 1278.334 681.014 1275.578 675.566 L 1272.821 670.118 1272.291 664.277 L 1271.762 658.437 1273.454 647.468 L 1275.146 636.500 1275.736 634 L 1276.327 631.500 1263.033 644.294 L 1249.738 657.088 1237.619 666.821 L 1225.500 676.554 1216.730 682.324 L 1207.961 688.095 1196.730 693.526 L 1185.500 698.957 1176.500 701.609 L 1167.500 704.260 1155.500 704.380 L 1143.500 704.500 1139.500 703.278 L 1135.500 702.055 1130 698.771 L 1124.500 695.487 1121.319 690.734 L 1118.138 685.980 1116.942 680.240 L 1115.747 674.500 1116.848 668.500 L 1117.949 662.500 1121.932 654.500 L 1125.916 646.500 1132.437 637.866 L 1138.959 629.233 1150.505 617.686 L 1162.052 606.139 1174.276 595.877 L 1186.500 585.614 1204.249 572.382 L 1221.997 559.151 1233.490 551.400 L 1244.982 543.648 1244.573 543.240 L 1244.165 542.831 1225.832 539.403 L 1207.500 535.975 1191.042 531.901 L 1174.584 527.827 1166.601 524.914 L 1158.617 522 1158.359 522 L 1158.101 522 1153.832 530.207 L 1149.562 538.413 1140.875 551.457 L 1132.188 564.500 1124.556 574 L 1116.924 583.500 1105.212 596.377 L 1093.500 609.255 1089.106 612.627 L 1084.712 616 1083.356 616 L 1082 616 1082 613.559 L 1082 611.117 1095.114 595.809 L 1108.228 580.500 1120.062 564.735 L 1131.897 548.971 1137.280 540.235 L 1142.662 531.500 1146.435 524.718 L 1150.208 517.935 1145.571 513.853 L 1140.933 509.771 1139.522 507.042 L 1138.110 504.313 1137.451 499.339 L 1136.791 494.365 1138.376 488.177 L 1139.962 481.988 1141.683 479.244 L 1143.403 476.500 1146.316 472.712 L 1149.228 468.924 1153.074 466.962 L 1156.920 465 1162.710 465.022 L 1168.500 465.044 1172.684 466.943 L 1176.867 468.843 1178.434 471.872 L 1180 474.901 1180 478.825 L 1180 482.749 1178.619 486.662 L 1177.239 490.575 1173.295 497.037 L 1169.351 503.500 1168.175 506.899 L 1167 510.298 1167 513.494 L 1167 516.690 1168.842 518.357 L 1170.685 520.025 1176.592 521.982 L 1182.500 523.938 1207.271 528.949 L 1232.041 533.959 1243.271 535.076 L 1254.500 536.194 1257.900 536.861 L 1261.299 537.528 1262.395 539.264 L 1263.490 541 1262.404 542.750 L 1261.318 544.500 1249.409 554.796 L 1237.500 565.092 1226.638 575.796 L 1215.775 586.500 1205.085 598.633 L 1194.394 610.766 1186.841 620.633 L 1179.289 630.500 1172.789 640.168 L 1166.290 649.836 1162.161 658.288 L 1158.031 666.740 1156.444 673.583 L 1154.857 680.426 1155.514 683.929 L 1156.171 687.431 1157.592 690.177 L 1159.012 692.923 1163.101 694.148 L 1167.190 695.374 1173.345 694.319 L 1179.500 693.264 1186.357 690.521 L 1193.215 687.777 1200.357 683.764 L 1207.500 679.752 1217 672.980 L 1226.500 666.208 1236.500 657.854 L 1246.500 649.500 1262.772 633.585 L 1279.045 617.670 1279.592 615.085 L 1280.139 612.500 1283.161 603.500 L 1286.183 594.500 1290.709 585.500 L 1295.236 576.500 1300.348 569 L 1305.459 561.500 1312.623 554.243 L 1319.788 546.987 1325.250 544.486 L 1330.712 541.985 1336.272 540.957 L 1341.833 539.929 1347.833 540.896 L 1353.832 541.862 1357.166 543.549 L 1360.500 545.236 1363.859 547.752 L 1367.218 550.268 1369.087 554.384 L 1370.956 558.500 1370.978 562.568 L 1371 566.637 1369.407 572.068 L 1367.814 577.500 1364.777 582.500 L 1361.741 587.500 1358.225 591.500 L 1354.708 595.500 1347.104 602.307 L 1339.500 609.115 1332.328 613.949 L 1325.155 618.784 1317.014 621.495 L 1308.872 624.207 1307.936 626.669 L 1307 629.130 1307 632.393 L 1307 635.655 1303.900 650.577 L 1300.800 665.500 1301.288 671.798 L 1301.777 678.097 1303.544 680.048 L 1305.310 682 1308.188 682 L 1311.066 682 1315.783 679.607 L 1320.500 677.214 1326.814 672.562 L 1333.128 667.910 1342.456 658.705 L 1351.783 649.500 1355.519 643.500 L 1359.255 637.500 1365.957 629.500 L 1372.660 621.500 1383.011 607.595 L 1393.361 593.690 1396.181 592.626 L 1399 591.562 1399 452.110 L 1399 312.657 1400.681 310.801 L 1402.361 308.944 1397.931 304.366 L 1393.500 299.788 1386.888 294.462 L 1380.276 289.135 1371.888 283.686 L 1363.500 278.238 1354.002 273.485 L 1344.505 268.731 1335.638 265.307 L 1326.771 261.882 1314.163 258.427 L 1301.555 254.971 1290.028 253.036 L 1278.500 251.100 1267 250.054 L 1255.500 249.007 1158.750 249.003 L 1062 249 1062 481.942 M 1544 250.497 L 1532.500 251.744 1525.500 252.925 L 1518.500 254.105 1508.500 256.595 L 1498.500 259.084 1492 261.187 L 1485.500 263.289 1477 266.693 L 1468.500 270.096 1458 275.650 L 1447.500 281.203 1438 287.807 L 1428.500 294.411 1418.250 304.360 L 1408 314.310 1408.021 452.905 L 1408.042 591.500 1411.684 583.526 L 1415.325 575.552 1418.581 569.997 L 1421.837 564.441 1426.240 558.470 L 1430.642 552.500 1435.071 549.580 L 1439.500 546.659 1445.076 542.888 L 1450.652 539.116 1455.172 537.978 L 1459.692 536.840 1463.692 537.917 L 1467.692 538.994 1471.651 541.862 L 1475.611 544.730 1479.182 551.615 L 1482.754 558.500 1484.469 563.786 L 1486.185 569.072 1490.077 564.650 L 1493.969 560.228 1498.734 557.229 L 1503.500 554.230 1507.127 553.593 L 1510.753 552.956 1513.627 554.041 L 1516.500 555.127 1519.339 557.814 L 1522.179 560.500 1523.589 563.200 L 1525 565.901 1525 568.958 L 1525 572.015 1519.354 583.757 L 1513.707 595.500 1510.849 603.950 L 1507.992 612.399 1508.507 614.021 L 1509.022 615.644 1506.503 627.572 L 1503.985 639.500 1503.353 647.129 L 1502.722 654.757 1503.353 657.268 L 1503.983 659.779 1505.648 660.419 L 1507.314 661.058 1511.113 658.544 L 1514.913 656.029 1522.319 646.765 L 1529.725 637.500 1539.673 623 L 1549.620 608.500 1557.042 596.653 L 1564.464 584.806 1567.289 582.794 L 1570.115 580.782 1570.695 581.361 L 1571.274 581.941 1575.232 576.220 L 1579.191 570.500 1584.345 565.194 L 1589.500 559.888 1595 556.716 L 1600.500 553.544 1606.068 553.611 L 1611.637 553.677 1617.057 556.589 L 1622.476 559.500 1630.660 567.781 L 1638.843 576.062 1639.297 575.281 L 1639.751 574.500 1642.517 565.019 L 1645.284 555.539 1651.544 538.519 L 1657.804 521.500 1663.522 508 L 1669.241 494.500 1671.753 488.520 L 1674.265 482.540 1676.437 479.020 L 1678.608 475.500 1681.408 469 L 1684.208 462.500 1684.711 461.250 L 1685.214 460 1559.047 460 L 1432.879 460 1433.190 456.250 L 1433.500 452.500 1559.750 452.246 L 1686 451.992 1686 455.690 L 1686 459.387 1690.978 452.322 L 1695.956 445.257 1701.939 439.717 L 1707.923 434.177 1715.096 430.588 L 1722.269 427 1729.884 427.006 L 1737.500 427.011 1741.355 428.081 L 1745.209 429.152 1749.605 433.203 L 1754 437.255 1754 343.127 L 1754 249 1654.750 249.125 L 1555.500 249.250 1544 250.497 M 85.242 333.250 L 85.500 393.500 96 394.133 L 106.500 394.765 113.271 396.373 L 120.043 397.981 123.840 399.918 L 127.636 401.855 131.262 405.868 L 134.887 409.881 136.657 415.190 L 138.427 420.500 139.041 517 L 139.655 613.500 140.820 620.229 L 141.986 626.958 143.951 635.781 L 145.917 644.604 149.062 653.552 L 152.207 662.500 157.212 672.489 L 162.217 682.478 168.058 690.989 L 173.899 699.500 180.605 706.831 L 187.310 714.162 193.905 719.398 L 200.500 724.633 206.500 728.668 L 212.500 732.703 220 736.800 L 227.500 740.897 237 744.835 L 246.500 748.774 256 751.863 L 265.500 754.952 275.500 757.474 L 285.500 759.996 299 761.945 L 312.500 763.895 327.187 764.948 L 341.875 766 359.687 765.996 L 377.500 765.992 391.500 764.961 L 405.500 763.930 418 761.936 L 430.500 759.941 439 757.949 L 447.500 755.957 455.500 753.330 L 463.500 750.704 472.500 746.768 L 481.500 742.832 490.500 737.783 L 499.500 732.734 507.978 726.635 L 516.456 720.535 523.318 714.061 L 530.180 707.588 537.493 697.880 L 544.806 688.172 548.617 681.357 L 552.428 674.542 556.190 665.405 L 559.952 656.268 562.449 646.384 L 564.946 636.500 566.941 624.500 L 568.936 612.500 569.958 598 L 570.980 583.500 570.990 500.932 L 571 418.363 572.543 413.167 L 574.086 407.972 577.016 404.635 L 579.946 401.297 585.723 398.708 L 591.500 396.119 598 395.067 L 604.500 394.015 610.250 394.008 L 616 394 616 333.500 L 616 273 508.500 273 L 401 273 401 333.500 L 401 394 406.250 394.006 L 411.500 394.012 417 394.919 L 422.500 395.827 428.500 398.062 L 434.500 400.297 438.639 404.406 L 442.779 408.515 444.389 413.939 L 446 419.363 446 503.724 L 446 588.084 444.433 595.792 L 442.866 603.500 439.237 610.907 L 435.607 618.313 430.536 623.507 L 425.465 628.701 417.982 632.261 L 410.500 635.821 404.500 637.049 L 398.500 638.277 387.500 638.256 L 376.500 638.236 369.741 636.630 L 362.982 635.025 357.824 632.411 L 352.665 629.797 347.455 624.869 L 342.244 619.940 338.602 612.720 L 334.961 605.500 333.300 598.500 L 331.638 591.500 331.266 509.099 L 330.893 426.698 331.970 419.753 L 333.048 412.808 334.636 409.654 L 336.224 406.500 339.362 403.165 L 342.500 399.829 345.211 398.409 L 347.922 396.989 355.026 395.494 L 362.131 394 368.565 394 L 375 394 375 333.500 L 375 273 229.992 273 L 84.984 273 85.242 333.250 M 1025 517.418 L 1025 750.891 1138.750 751.281 L 1252.500 751.671 1269.500 753.827 L 1286.500 755.983 1309.500 760.033 L 1332.500 764.083 1350 768.088 L 1367.500 772.094 1380.348 775.616 L 1393.196 779.138 1393.556 778.777 L 1393.917 778.416 1387.057 773.185 L 1380.197 767.953 1367.497 759.998 L 1354.797 752.044 1342.649 746.034 L 1330.500 740.024 1320.500 736.435 L 1310.500 732.845 1299.216 729.931 L 1287.932 727.017 1275.746 725.509 L 1263.560 724 1159.902 724 L 1056.245 724 1055.125 722.650 L 1054.005 721.301 1053.752 502.900 L 1053.500 284.500 1039.250 284.223 L 1025 283.945 1025 517.418 M 1763 501.777 L 1763 719.555 1761.443 721.777 L 1759.887 724 1656.404 724 L 1552.921 724 1543.211 725.055 L 1533.500 726.111 1522 728.653 L 1510.500 731.195 1500 734.666 L 1489.500 738.137 1473.448 746.003 L 1457.396 753.869 1444.507 762.476 L 1431.618 771.083 1424.741 776.640 L 1417.863 782.197 1418.287 782.621 L 1418.712 783.045 1437.023 777.966 L 1455.335 772.888 1474.417 768.501 L 1493.500 764.115 1507 761.558 L 1520.500 759.001 1538 756.548 L 1555.500 754.095 1571.937 752.547 L 1588.375 751 1694.687 751 L 1801 751 1801 517.500 L 1801 284 1782 284 L 1763 284 1763 501.777 M 986 549.500 L 986 780 994.250 779.999 L 1002.500 779.998 1158 781.947 L 1313.500 783.895 1346.369 784.399 L 1379.237 784.904 1378.856 784.523 L 1378.476 784.142 1361.988 779.995 L 1345.500 775.848 1323.500 771.473 L 1301.500 767.099 1287 765.049 L 1272.500 762.998 1258 761.321 L 1243.500 759.644 1131.031 759.263 L 1018.563 758.882 1017.281 757.819 L 1016 756.755 1016 537.878 L 1016 319 1001 319 L 986 319 986 549.500 M 1810 537.878 L 1810 756.755 1808.718 757.819 L 1807.436 758.883 1693.968 759.292 L 1580.500 759.701 1567 761.336 L 1553.500 762.971 1539 765.033 L 1524.500 767.095 1504 771.118 L 1483.500 775.141 1465.514 779.640 L 1447.528 784.139 1447.077 784.590 L 1446.626 785.041 1470.563 784.483 L 1494.500 783.925 1627.500 782.488 L 1760.500 781.050 1800.250 780.393 L 1840 779.736 1840 549.368 L 1840 319 1825 319 L 1810 319 1810 537.878 M 1125 344 L 1125 348 1251.500 348 L 1378 348 1378 344 L 1378 340 1251.500 340 L 1125 340 1125 344 M 1475 344 L 1475 348 1601.500 348 L 1728 348 1728 344 L 1728 340 1601.500 340 L 1475 340 1475 344 M 909.500 360.290 L 905.500 361.513 901.155 363.825 L 896.810 366.138 892.329 370.618 L 887.849 375.099 884.788 381.639 L 881.727 388.180 881.727 397.500 L 881.727 406.820 884.823 413.435 L 887.919 420.051 892.855 424.859 L 897.792 429.667 903.646 432.542 L 909.500 435.416 919.500 435.453 L 929.500 435.489 935.218 432.815 L 940.936 430.140 945.836 425.557 L 950.735 420.974 954.118 414.737 L 957.500 408.500 957.500 397.500 L 957.500 386.500 954.580 380.734 L 951.660 374.969 946.333 369.930 L 941.005 364.892 935.408 362.329 L 929.811 359.767 921.656 359.417 L 913.500 359.068 909.500 360.290 M 1083 381 L 1083 385 1230.500 385 L 1378 385 1378 381 L 1378 377 1230.500 377 L 1083 377 1083 381 M 1433 381 L 1433 385 1580.500 385 L 1728 385 1728 381 L 1728 377 1580.500 377 L 1433 377 1433 381 M 895 379.140 L 895 380.280 893.468 381.399 L 891.937 382.519 893.025 395.010 L 894.114 407.500 894.596 409.831 L 895.079 412.162 898.789 411.553 L 902.500 410.943 908.500 412.523 L 914.500 414.103 915.450 415.052 L 916.400 416 920 416 L 923.600 416 924.559 415.041 L 925.518 414.082 931.523 412.544 L 937.528 411.005 941.495 411.253 L 945.461 411.500 946.780 397.023 L 948.099 382.545 946.549 381.412 L 945 380.280 945 379.140 L 945 378 939.750 378.022 L 934.500 378.044 930.500 379.867 L 926.500 381.691 923.250 384.434 L 920 387.178 916.750 384.434 L 913.500 381.691 909.500 379.867 L 905.500 378.044 900.250 378.022 L 895 378 895 379.140 M 897.560 386.800 L 898.281 394.500 898.890 399.392 L 899.500 404.283 903.500 405.473 L 907.500 406.664 911 408.449 L 914.500 410.234 916.750 412.291 L 919 414.349 919 401.225 L 919 388.102 915.681 385.571 L 912.363 383.039 908.431 381.672 L 904.500 380.306 900.669 379.703 L 896.839 379.100 897.560 386.800 M 937.500 380.026 L 933.500 380.834 930.504 381.985 L 927.509 383.137 924.254 385.620 L 921 388.102 921 401.225 L 921 414.349 923.250 412.291 L 925.500 410.234 929 408.449 L 932.500 406.664 936.500 405.472 L 940.500 404.280 941.115 399.890 L 941.730 395.500 942.434 387.250 L 943.137 379 942.319 379.110 L 941.500 379.219 937.500 380.026 M 894.411 390 L 895.083 397.500 895.680 403.750 L 896.276 410 902.073 410 L 907.870 410 910.685 411.063 L 913.500 412.126 912.500 411.167 L 911.500 410.208 904.500 407.724 L 897.500 405.241 896.500 394.690 L 895.500 384.140 894.620 383.320 L 893.740 382.500 894.411 390 M 944.938 383 L 944.719 383.500 943.610 394.372 L 942.500 405.245 935.500 407.726 L 928.500 410.208 927.500 411.167 L 926.500 412.126 929.315 411.063 L 932.130 410 938.065 410 L 944 410 944 408.174 L 944 406.347 945.076 395.653 L 946.153 384.958 945.655 383.729 L 945.158 382.500 944.938 383 M 887.441 388.250 L 887.973 391.500 889.553 403.484 L 891.134 415.467 891.337 415.671 L 891.541 415.874 903.632 417.937 L 915.722 420 920 420 L 924.278 420 936.368 417.937 L 948.459 415.874 948.721 415.613 L 948.982 415.351 950.984 400.426 L 952.986 385.500 952.993 385.250 L 953 385 951.129 385 L 949.258 385 948.656 389.750 L 948.054 394.500 947.383 403.750 L 946.713 413 939.867 413 L 933.021 413 927.761 414.999 L 922.500 416.999 920 416.999 L 917.500 416.999 912.239 414.999 L 906.979 413 900.133 413 L 893.287 413 892.617 403.750 L 891.946 394.500 891.344 389.750 L 890.742 385 888.826 385 L 886.909 385 887.441 388.250 M 1083.190 421.750 L 1083.500 425.500 1230.750 425.753 L 1378 426.007 1378 422.003 L 1378 418 1230.440 418 L 1082.879 418 1083.190 421.750 M 1433.190 421.750 L 1433.500 425.500 1580.750 425.753 L 1728 426.007 1728 422.003 L 1728 418 1580.440 418 L 1432.879 418 1433.190 421.750 M 1730.290 444.624 L 1727.081 446.211 1723.192 451.355 L 1719.303 456.500 1714.114 465.684 L 1708.925 474.869 1704.452 484.440 L 1699.980 494.011 1696.117 503.755 L 1692.255 513.500 1685.181 534 L 1678.108 554.500 1674.187 566.750 L 1670.267 579 1670.513 579 L 1670.760 579 1675.130 573.285 L 1679.500 567.570 1680.923 565.619 L 1682.346 563.668 1681.130 564.420 L 1679.914 565.171 1689.051 552.836 L 1698.188 540.500 1708.436 525 L 1718.685 509.500 1723.773 501 L 1728.862 492.500 1732.921 484 L 1736.980 475.500 1738.990 467.590 L 1741 459.680 1741 455.308 L 1741 450.936 1739.551 447.468 L 1738.102 444 1737.133 444 L 1736.164 444 1734.832 443.519 L 1733.500 443.038 1730.290 444.624 M 1083.667 452.667 L 1083 453.333 1083 456.667 L 1083 460 1230.500 460 L 1378 460 1378 456 L 1378 452 1231.167 452 L 1084.333 452 1083.667 452.667 M 1751.087 476.590 L 1748.674 482.500 1744.229 490.500 L 1739.784 498.500 1733.194 509 L 1726.604 519.500 1718.720 530.250 L 1710.835 541 1710.018 541 L 1709.201 541 1702.601 549.865 L 1696 558.730 1696 559.676 L 1696 560.622 1683.479 576.561 L 1670.958 592.500 1667.924 598.582 L 1664.890 604.665 1662.999 614.582 L 1661.108 624.500 1659.061 637.500 L 1657.013 650.500 1655.892 660 L 1654.770 669.500 1655.313 676.815 L 1655.856 684.131 1657.451 686.565 L 1659.046 689 1661.179 689 L 1663.312 689 1668.230 683.750 L 1673.148 678.500 1684.381 663.500 L 1695.614 648.500 1705.536 634.654 L 1715.458 620.807 1725.582 608.154 L 1735.705 595.500 1743.603 587.904 L 1751.500 580.308 1752.759 579.901 L 1754.017 579.494 1753.759 525.087 L 1753.500 470.680 1751.087 476.590 M 755.039 482.104 L 748.579 483.092 741.039 485.608 L 733.500 488.125 723.132 493.596 L 712.763 499.067 708.132 502.202 L 703.500 505.337 695 512.097 L 686.500 518.858 678.072 527.378 L 669.645 535.899 668.822 535.390 L 668 534.882 668 530.072 L 668 525.262 666.473 516.381 L 664.947 507.500 663.362 502.500 L 661.776 497.500 659.256 491.759 L 656.735 486.019 653.118 486.516 L 649.500 487.013 622.391 489.506 L 595.282 492 593.641 492 L 592 492 592 494.389 L 592 496.777 595.703 497.472 L 599.407 498.167 603.048 500.025 L 606.689 501.882 609.989 505.640 L 613.289 509.398 615.076 513.449 L 616.863 517.500 618.181 524.500 L 619.500 531.500 619.474 607 L 619.447 682.500 617.788 690.165 L 616.129 697.829 613.925 702.952 L 611.721 708.075 607.371 711.905 L 603.020 715.734 598.260 716.965 L 593.500 718.195 592.250 718.566 L 591 718.937 591 720.969 L 591 723 644 723 L 697 723 697 721.189 L 697 719.379 691.083 717.606 L 685.165 715.834 681.106 712.359 L 677.047 708.884 674.134 702.692 L 671.221 696.500 670.111 689.918 L 669 683.336 669 638.892 L 669 594.448 670.054 585.974 L 671.108 577.500 672.683 572 L 674.258 566.500 677.057 560.920 L 679.857 555.341 683.544 550.420 L 687.232 545.500 692.366 540.184 L 697.500 534.867 704 530.053 L 710.500 525.240 715.500 522.758 L 720.500 520.277 726 518.420 L 731.500 516.563 741.018 516.531 L 750.535 516.500 757.211 519.785 L 763.887 523.070 766.960 526.949 L 770.032 530.828 772.454 536.164 L 774.877 541.500 776.688 550.500 L 778.500 559.500 778.500 621.500 L 778.500 683.500 776.735 691.500 L 774.971 699.500 772.235 705 L 769.500 710.500 765.347 713.371 L 761.194 716.243 755.847 717.442 L 750.500 718.642 750.180 720.821 L 749.861 723 803 723 L 856.139 723 855.820 720.821 L 855.500 718.642 850.500 717.507 L 845.500 716.372 843.500 715.268 L 841.500 714.164 838.337 710.832 L 835.175 707.500 833.068 703.406 L 830.961 699.312 829.498 692.406 L 828.035 685.500 828.013 622.500 L 827.992 559.500 826.950 545.729 L 825.907 531.958 823.954 524.229 L 822.001 516.500 818.414 509.185 L 814.826 501.870 809.641 496.684 L 804.455 491.499 797.943 488.293 L 791.431 485.087 785.534 483.551 L 779.637 482.015 770.568 481.566 L 761.500 481.117 755.039 482.104 M 909 489.059 L 875.500 491.842 871.750 491.921 L 868 492 868 494.389 L 868 496.777 871.675 497.467 L 875.350 498.156 879.191 499.693 L 883.033 501.230 886.860 505.578 L 890.687 509.925 892.849 517.213 L 895.012 524.500 896.061 533.075 L 897.109 541.650 896.765 614.075 L 896.421 686.500 894.222 694.365 L 892.023 702.230 889.762 706.321 L 887.500 710.411 883.500 713.186 L 879.500 715.961 874 717.339 L 868.500 718.717 868.180 720.859 L 867.861 723 921.430 723 L 975 723 975 721.067 L 975 719.135 973.250 718.655 L 971.500 718.175 967.933 717.576 L 964.367 716.978 960.433 714.420 L 956.500 711.863 953.893 708.181 L 951.286 704.500 949.676 699.500 L 948.067 694.500 947.041 688 L 946.015 681.500 946.008 583.750 L 946 486 944.250 486.138 L 942.500 486.276 909 489.059 M 1664.716 521.729 L 1662.139 527.500 1661.429 530.500 L 1660.719 533.500 1661.295 532.981 L 1661.871 532.462 1664.919 524.548 L 1667.966 516.633 1667.629 516.296 L 1667.292 515.958 1664.716 521.729 M 1658.221 552.272 L 1656 556.719 1656.021 560.110 L 1656.042 563.500 1658.516 556.500 L 1660.991 549.500 1660.716 548.663 L 1660.442 547.825 1658.221 552.272 M 1344.044 553.616 L 1340.935 556.232 1336.488 562.465 L 1332.040 568.698 1328.073 576.732 L 1324.105 584.766 1319.053 596.778 L 1314 608.791 1314 609.362 L 1314 609.933 1317.750 607.754 L 1321.500 605.575 1325.031 603.037 L 1328.561 600.500 1333.300 596.522 L 1338.038 592.545 1344.705 584.132 L 1351.372 575.719 1351.874 570.609 L 1352.375 565.500 1352.438 560.354 L 1352.500 555.209 1350.595 553.104 L 1348.690 551 1347.922 551 L 1347.153 551 1344.044 553.616 M 1460.984 553.849 L 1457.500 555.697 1453.812 560.534 L 1450.124 565.371 1450.312 565.956 L 1450.500 566.541 1448.610 570.743 L 1446.721 574.945 1445.965 574.478 L 1445.210 574.011 1444.581 575.649 L 1443.953 577.286 1444.476 577.810 L 1445 578.333 1445 577 L 1445 575.667 1445.537 576.204 L 1446.075 576.742 1444.891 579.339 L 1443.708 581.937 1442.933 581.459 L 1442.159 580.980 1438.167 591.240 L 1434.175 601.500 1432.080 607.938 L 1429.985 614.377 1430.600 616.314 L 1431.214 618.250 1430 617.500 L 1428.786 616.750 1429.412 618.721 L 1430.037 620.693 1428.463 626.836 L 1426.890 632.980 1427.195 637.740 L 1427.500 642.500 1429.614 642.802 L 1431.728 643.103 1437.614 636.675 L 1443.500 630.247 1453.753 616.152 L 1464.006 602.057 1470.003 593.076 L 1476 584.096 1475.979 582.298 L 1475.958 580.500 1473.479 572.051 L 1471 563.603 1471.070 561.551 L 1471.141 559.500 1472 561.500 L 1472.859 563.500 1472.930 562.218 L 1473 560.936 1471.585 557.548 L 1470.169 554.161 1468.150 553.080 L 1466.131 552 1465.300 552 L 1464.469 552 1460.984 553.849 M 1611.487 574.146 L 1608.041 577.172 1604.613 582.836 L 1601.186 588.500 1595.021 601.847 L 1588.856 615.195 1584.431 628.436 L 1580.007 641.677 1579.401 649.589 L 1578.795 657.500 1578.339 658.250 L 1577.882 659 1579 659 L 1580.118 659 1579.473 660.044 L 1578.828 661.088 1580.036 662.544 L 1581.245 664 1584.051 664 L 1586.857 664 1588.179 662.702 L 1589.500 661.405 1594 658.302 L 1598.500 655.200 1601.403 652.135 L 1604.306 649.071 1604.995 649.497 L 1605.683 649.922 1609.092 646.211 L 1612.500 642.500 1608.939 645.500 L 1605.378 648.500 1610.724 643.261 L 1616.069 638.023 1616.784 638.261 L 1617.500 638.498 1621.739 635.091 L 1625.977 631.683 1627.611 629.092 L 1629.245 626.500 1622.935 632.500 L 1616.625 638.500 1621.849 632.629 L 1627.074 626.758 1628.516 623.969 L 1629.958 621.180 1631.480 612.340 L 1633.002 603.500 1634.086 598.183 L 1635.169 592.867 1632.528 587.467 L 1629.886 582.067 1625.693 577.503 L 1621.500 572.939 1618.216 572.029 L 1614.933 571.120 1611.487 574.146 M 1747.063 600.681 L 1740.784 606.363 1731.210 617.431 L 1721.635 628.500 1714.991 637.500 L 1708.346 646.500 1698.241 661.500 L 1688.136 676.500 1679.621 687.185 L 1671.107 697.869 1665.888 701.995 L 1660.669 706.120 1657.584 707.733 L 1654.500 709.346 1649.929 709.291 L 1645.358 709.237 1642.429 707.714 L 1639.500 706.191 1635.614 702.346 L 1631.729 698.500 1629.807 694.227 L 1627.886 689.953 1626.460 683.227 L 1625.035 676.500 1625.079 668 L 1625.124 659.500 1625.909 652 L 1626.694 644.500 1626.317 644.053 L 1625.940 643.607 1618.220 651.186 L 1610.500 658.766 1601 666.425 L 1591.500 674.085 1585.590 677.042 L 1579.681 680 1575.037 680 L 1570.393 680 1565.249 677.437 L 1560.104 674.873 1557.039 670.246 L 1553.974 665.618 1552.737 661.559 L 1551.500 657.500 1551.619 646 L 1551.738 634.500 1553.764 628.250 L 1555.790 622 1555.481 622 L 1555.172 622 1551.418 628.750 L 1547.664 635.500 1540.956 645.500 L 1534.248 655.500 1529.592 661.500 L 1524.935 667.500 1518.854 673.693 L 1512.773 679.887 1508.397 681.943 L 1504.022 684 1499.576 684 L 1495.130 684 1492.617 683.045 L 1490.105 682.089 1485.896 678.295 L 1481.688 674.500 1478.876 668.565 L 1476.065 662.630 1474.908 657.065 L 1473.750 651.500 1474.298 640 L 1474.847 628.500 1477.486 619 L 1480.125 609.500 1480.933 605.250 L 1481.742 601 1481.451 601 L 1481.160 601 1476.256 607.750 L 1471.351 614.500 1465.654 624.187 L 1459.957 633.875 1456.153 638.687 L 1452.348 643.500 1443.924 652.414 L 1435.500 661.328 1431.600 664.164 L 1427.700 667 1426.100 666.985 L 1424.500 666.969 1426 665.919 L 1427.500 664.869 1425.500 665.391 L 1423.500 665.913 1418.137 666.497 L 1412.773 667.081 1410.387 665.518 L 1408 663.954 1408 721.525 L 1408 779.097 1414.963 773.236 L 1421.925 767.375 1430.038 761.534 L 1438.151 755.693 1448.825 749.254 L 1459.500 742.815 1470.500 737.504 L 1481.500 732.193 1491.500 728.475 L 1501.500 724.757 1513 721.827 L 1524.500 718.897 1533.500 717.292 L 1542.500 715.688 1648.250 715.297 L 1754 714.907 1754 654.953 L 1754 595 1753.670 595 L 1753.341 595 1747.063 600.681 M 1281.421 627.750 L 1279.676 632.500 1278.338 635.872 L 1277 639.244 1277 643.573 L 1277 647.902 1275.905 653.006 L 1274.811 658.110 1275.543 660.805 L 1276.274 663.500 1279.655 650 L 1283.036 636.500 1283.663 629.750 L 1284.290 623 1283.728 623 L 1283.165 623 1281.421 627.750" stroke="none" fill="#5c1240" fill-rule="evenodd"/><path d="M -0 540.001 L -0 1080.001 960.250 1079.751 L 1920.500 1079.500 1920.751 539.750 L 1921.002 0 960.501 0 L 0 0 -0 540.001 M 0.496 540.500 L 0.496 1080.500 0.750 810.168 L 1.004 539.836 0.750 270.168 L 0.496 0.500 0.496 540.500 M 1055.200 241.200 L 1054 242.400 1054 258.700 L 1054 275 1037.223 275 L 1020.445 275 1018.223 276.557 L 1016 278.113 1016 294.057 L 1016 310 999.565 310 L 983.130 310 980.565 310.975 L 978 311.950 978 549.500 L 978 787.050 980.250 787.867 L 982.500 788.685 1167 791.017 L 1351.500 793.350 1410 793.417 L 1468.500 793.484 1656 791.113 L 1843.500 788.742 1845.750 787.896 L 1848 787.050 1848 549.500 L 1848 311.950 1845.435 310.975 L 1842.870 310 1826.460 310 L 1810.050 310 1809.775 293.778 L 1809.500 277.557 1807 276.293 L 1804.500 275.029 1783.750 275.015 L 1763 275 1763 259.611 L 1763 244.222 1761.250 242.060 L 1759.500 239.899 1653 240.254 L 1546.500 240.610 1533.500 242.729 L 1520.500 244.847 1509 247.446 L 1497.500 250.044 1484 254.615 L 1470.500 259.187 1460 264.422 L 1449.500 269.657 1441.188 274.818 L 1432.875 279.979 1427.188 284.373 L 1421.500 288.767 1414.750 294.972 L 1408 301.177 1401.250 294.955 L 1394.500 288.734 1387.500 283.460 L 1380.500 278.187 1371 272.418 L 1361.500 266.649 1353.500 262.967 L 1345.500 259.286 1335.574 255.586 L 1325.648 251.886 1312.074 248.555 L 1298.500 245.224 1289 243.642 L 1279.500 242.060 1265.500 241.034 L 1251.500 240.008 1153.950 240.004 L 1056.400 240 1055.200 241.200 M 60 332.843 L 60 417.687 80.577 418.370 L 101.155 419.054 105.827 420.060 L 110.500 421.065 112 421.995 L 113.500 422.926 114.064 518.713 L 114.627 614.500 116.360 625 L 118.093 635.500 121.093 646.875 L 124.093 658.250 127.682 667.375 L 131.271 676.500 135.254 684.500 L 139.238 692.500 146.730 703.782 L 154.222 715.064 164.127 725.438 L 174.032 735.813 182.713 742.349 L 191.393 748.886 201.780 755.073 L 212.168 761.261 224.334 766.512 L 236.500 771.763 247.809 775.406 L 259.118 779.050 268.809 781.500 L 278.500 783.949 290 785.903 L 301.500 787.858 314 789.172 L 326.500 790.487 359 790.451 L 391.500 790.415 406.500 788.665 L 421.500 786.915 436.191 783.972 L 450.883 781.030 460.426 777.973 L 469.970 774.916 479.735 770.876 L 489.500 766.836 498 762.240 L 506.500 757.644 513.500 753.188 L 520.500 748.731 528.500 742.477 L 536.500 736.223 544.594 727.862 L 552.688 719.500 558.732 711.315 L 564.776 703.129 569.797 694.315 L 574.819 685.500 578.913 675.869 L 583.008 666.238 585.997 654.869 L 588.985 643.500 591.481 628.487 L 593.977 613.473 594.979 596.987 L 595.982 580.500 595.991 539.250 L 596 498 597.540 498 L 599.080 498 602.885 499.941 L 606.689 501.882 609.989 505.640 L 613.289 509.398 615.076 513.449 L 616.863 517.500 618.181 524.500 L 619.500 531.500 619.474 607 L 619.447 682.500 617.788 690.165 L 616.129 697.829 613.925 702.952 L 611.721 708.075 607.371 711.905 L 603.020 715.734 598.260 716.965 L 593.500 718.195 592.250 718.566 L 591 718.937 591 720.969 L 591 723 644 723 L 697 723 697 721.189 L 697 719.379 691.083 717.606 L 685.165 715.834 681.106 712.359 L 677.047 708.884 674.134 702.692 L 671.221 696.500 670.111 689.918 L 669 683.336 669 638.892 L 669 594.448 670.054 585.974 L 671.108 577.500 672.683 572 L 674.258 566.500 677.057 560.920 L 679.857 555.341 683.544 550.420 L 687.232 545.500 692.366 540.184 L 697.500 534.867 704 530.053 L 710.500 525.240 715.500 522.758 L 720.500 520.277 726 518.420 L 731.500 516.563 741.018 516.531 L 750.535 516.500 757.211 519.785 L 763.887 523.070 766.960 526.949 L 770.032 530.828 772.454 536.164 L 774.877 541.500 776.688 550.500 L 778.500 559.500 778.500 621.500 L 778.500 683.500 776.735 691.500 L 774.971 699.500 772.235 705 L 769.500 710.500 765.347 713.371 L 761.194 716.243 755.847 717.442 L 750.500 718.642 750.180 720.821 L 749.861 723 803 723 L 856.139 723 855.820 720.821 L 855.500 718.642 850.500 717.507 L 845.500 716.372 843.500 715.268 L 841.500 714.164 838.337 710.832 L 835.175 707.500 833.068 703.406 L 830.961 699.312 829.498 692.406 L 828.035 685.500 828.013 622.500 L 827.992 559.500 826.950 545.729 L 825.907 531.958 823.954 524.229 L 822.001 516.500 818.414 509.185 L 814.826 501.870 809.641 496.684 L 804.455 491.499 797.905 488.274 L 791.356 485.050 784.928 483.334 L 778.500 481.618 766.500 481.690 L 754.500 481.763 746.716 483.849 L 738.932 485.935 730.646 489.819 L 722.360 493.702 715.193 497.887 L 708.027 502.073 699.763 508.257 L 691.500 514.442 680.416 525.220 L 669.332 535.999 668.666 535.333 L 668 534.667 668 529.964 L 668 525.262 666.473 516.381 L 664.947 507.500 663.362 502.500 L 661.776 497.500 659.256 491.759 L 656.735 486.019 653.118 486.511 L 649.500 487.004 627 489.006 L 604.500 491.008 600.250 491.565 L 596 492.123 596 456.608 L 596 421.094 599.750 420.050 L 603.500 419.005 622.250 418.345 L 641 417.684 641 332.842 L 641 248 350.500 248 L 60 248 60 332.843 M 1062 481.942 L 1062 714.885 1168.750 715.281 L 1275.500 715.677 1286.500 717.784 L 1297.500 719.890 1309.753 723.423 L 1322.007 726.956 1330.753 730.572 L 1339.500 734.188 1351.053 740.073 L 1362.606 745.958 1372.718 752.369 L 1382.830 758.780 1390.941 764.955 L 1399.053 771.130 1398.941 688.565 L 1398.830 606 1398.520 606 L 1398.211 606 1384.218 624.250 L 1370.225 642.500 1364.932 648.500 L 1359.640 654.500 1351.481 665.500 L 1343.322 676.500 1334.849 684.500 L 1326.376 692.500 1320.972 695.430 L 1315.568 698.360 1309.534 698.416 L 1303.500 698.472 1296.712 695.271 L 1289.925 692.070 1284.130 686.542 L 1278.334 681.014 1275.578 675.566 L 1272.821 670.118 1272.291 664.277 L 1271.762 658.437 1273.454 647.468 L 1275.146 636.500 1275.736 634 L 1276.327 631.500 1263.033 644.294 L 1249.738 657.088 1237.619 666.821 L 1225.500 676.554 1216.730 682.324 L 1207.961 688.095 1196.730 693.526 L 1185.500 698.957 1176.500 701.609 L 1167.500 704.260 1155.500 704.380 L 1143.500 704.500 1139.500 703.278 L 1135.500 702.055 1130 698.771 L 1124.500 695.487 1121.319 690.734 L 1118.138 685.980 1116.942 680.240 L 1115.747 674.500 1116.848 668.500 L 1117.949 662.500 1121.932 654.500 L 1125.916 646.500 1132.437 637.866 L 1138.959 629.233 1150.505 617.686 L 1162.052 606.139 1174.276 595.877 L 1186.500 585.614 1204.249 572.382 L 1221.997 559.151 1233.490 551.400 L 1244.982 543.648 1244.573 543.240 L 1244.165 542.831 1225.832 539.403 L 1207.500 535.975 1191.042 531.901 L 1174.584 527.827 1166.601 524.914 L 1158.617 522 1158.359 522 L 1158.101 522 1153.832 530.207 L 1149.562 538.413 1140.875 551.457 L 1132.188 564.500 1124.556 574 L 1116.924 583.500 1105.212 596.377 L 1093.500 609.255 1089.106 612.627 L 1084.712 616 1083.356 616 L 1082 616 1082 613.559 L 1082 611.117 1095.114 595.809 L 1108.228 580.500 1120.062 564.735 L 1131.897 548.971 1137.280 540.235 L 1142.662 531.500 1146.435 524.718 L 1150.208 517.935 1145.571 513.853 L 1140.933 509.771 1139.522 507.042 L 1138.110 504.313 1137.451 499.339 L 1136.791 494.365 1138.376 488.177 L 1139.962 481.988 1141.683 479.244 L 1143.403 476.500 1146.316 472.712 L 1149.228 468.924 1153.074 466.962 L 1156.920 465 1162.710 465.022 L 1168.500 465.044 1172.684 466.943 L 1176.867 468.843 1178.434 471.872 L 1180 474.901 1180 478.825 L 1180 482.749 1178.619 486.662 L 1177.239 490.575 1173.295 497.037 L 1169.351 503.500 1168.175 506.899 L 1167 510.298 1167 513.494 L 1167 516.690 1168.842 518.357 L 1170.685 520.025 1176.592 521.982 L 1182.500 523.938 1207.271 528.949 L 1232.041 533.959 1243.271 535.076 L 1254.500 536.194 1257.900 536.861 L 1261.299 537.528 1262.395 539.264 L 1263.490 541 1262.404 542.750 L 1261.318 544.500 1249.409 554.796 L 1237.500 565.092 1226.638 575.796 L 1215.775 586.500 1205.085 598.633 L 1194.394 610.766 1186.841 620.633 L 1179.289 630.500 1172.789 640.168 L 1166.290 649.836 1162.161 658.288 L 1158.031 666.740 1156.444 673.583 L 1154.857 680.426 1155.514 683.929 L 1156.171 687.431 1157.592 690.177 L 1159.012 692.923 1163.101 694.148 L 1167.190 695.374 1173.345 694.319 L 1179.500 693.264 1186.357 690.521 L 1193.215 687.777 1200.357 683.764 L 1207.500 679.752 1217 672.980 L 1226.500 666.208 1236.500 657.854 L 1246.500 649.500 1262.772 633.585 L 1279.045 617.670 1279.592 615.085 L 1280.139 612.500 1283.161 603.500 L 1286.183 594.500 1290.709 585.500 L 1295.236 576.500 1300.348 569 L 1305.459 561.500 1312.623 554.243 L 1319.788 546.987 1325.250 544.486 L 1330.712 541.985 1336.272 540.957 L 1341.833 539.929 1347.833 540.896 L 1353.832 541.862 1357.166 543.549 L 1360.500 545.236 1363.859 547.752 L 1367.218 550.268 1369.087 554.384 L 1370.956 558.500 1370.978 562.568 L 1371 566.637 1369.407 572.068 L 1367.814 577.500 1364.777 582.500 L 1361.741 587.500 1358.225 591.500 L 1354.708 595.500 1347.104 602.307 L 1339.500 609.115 1332.328 613.949 L 1325.155 618.784 1317.014 621.495 L 1308.872 624.207 1307.936 626.669 L 1307 629.130 1307 632.393 L 1307 635.655 1303.900 650.577 L 1300.800 665.500 1301.288 671.798 L 1301.777 678.097 1303.544 680.048 L 1305.310 682 1308.188 682 L 1311.066 682 1315.783 679.607 L 1320.500 677.214 1326.814 672.562 L 1333.128 667.910 1342.456 658.705 L 1351.783 649.500 1355.519 643.500 L 1359.255 637.500 1365.957 629.500 L 1372.660 621.500 1383.011 607.595 L 1393.361 593.690 1396.181 592.626 L 1399 591.562 1399 452.110 L 1399 312.657 1400.681 310.801 L 1402.361 308.944 1397.931 304.366 L 1393.500 299.788 1386.888 294.462 L 1380.276 289.135 1371.888 283.686 L 1363.500 278.238 1354.002 273.485 L 1344.505 268.731 1335.638 265.307 L 1326.771 261.882 1314.163 258.427 L 1301.555 254.971 1290.028 253.036 L 1278.500 251.100 1267 250.054 L 1255.500 249.007 1158.750 249.003 L 1062 249 1062 481.942 M 1544 250.497 L 1532.500 251.744 1525.500 252.925 L 1518.500 254.105 1508.500 256.595 L 1498.500 259.084 1492 261.187 L 1485.500 263.289 1477 266.693 L 1468.500 270.096 1458 275.650 L 1447.500 281.203 1438 287.807 L 1428.500 294.411 1418.250 304.360 L 1408 314.310 1408.021 452.905 L 1408.042 591.500 1411.684 583.526 L 1415.325 575.552 1418.581 569.997 L 1421.837 564.441 1426.240 558.470 L 1430.642 552.500 1435.071 549.580 L 1439.500 546.659 1445.076 542.888 L 1450.652 539.116 1455.172 537.978 L 1459.692 536.840 1463.692 537.917 L 1467.692 538.994 1471.651 541.862 L 1475.611 544.730 1479.182 551.615 L 1482.754 558.500 1484.469 563.786 L 1486.185 569.072 1490.077 564.650 L 1493.969 560.228 1498.734 557.229 L 1503.500 554.230 1507.127 553.593 L 1510.753 552.956 1513.627 554.041 L 1516.500 555.127 1519.339 557.814 L 1522.179 560.500 1523.589 563.200 L 1525 565.901 1525 568.958 L 1525 572.015 1519.354 583.757 L 1513.707 595.500 1510.849 603.950 L 1507.992 612.399 1508.507 614.021 L 1509.022 615.644 1506.503 627.572 L 1503.985 639.500 1503.353 647.129 L 1502.722 654.757 1503.353 657.268 L 1503.983 659.779 1505.648 660.419 L 1507.314 661.058 1511.113 658.544 L 1514.913 656.029 1522.319 646.765 L 1529.725 637.500 1539.673 623 L 1549.620 608.500 1557.042 596.653 L 1564.464 584.806 1567.289 582.794 L 1570.115 580.782 1570.695 581.361 L 1571.274 581.941 1575.232 576.220 L 1579.191 570.500 1584.345 565.194 L 1589.500 559.888 1595 556.716 L 1600.500 553.544 1606.068 553.611 L 1611.637 553.677 1617.057 556.589 L 1622.476 559.500 1630.660 567.781 L 1638.843 576.062 1639.297 575.281 L 1639.751 574.500 1642.517 565.019 L 1645.284 555.539 1651.544 538.519 L 1657.804 521.500 1663.522 508 L 1669.241 494.500 1671.753 488.520 L 1674.265 482.540 1676.437 479.020 L 1678.608 475.500 1681.408 469 L 1684.208 462.500 1684.711 461.250 L 1685.214 460 1559.107 460 L 1433 460 1433 456 L 1433 452 1559.500 452 L 1686 452 1686 455.694 L 1686 459.387 1690.978 452.322 L 1695.956 445.257 1701.939 439.717 L 1707.923 434.177 1715.096 430.588 L 1722.269 427 1729.884 427.006 L 1737.500 427.011 1741.355 428.081 L 1745.209 429.152 1749.605 433.203 L 1754 437.255 1754 343.127 L 1754 249 1654.750 249.125 L 1555.500 249.250 1544 250.497 M 1025 517.418 L 1025 750.891 1138.750 751.281 L 1252.500 751.671 1269.500 753.827 L 1286.500 755.983 1309.500 760.033 L 1332.500 764.083 1350 768.088 L 1367.500 772.094 1380.348 775.616 L 1393.196 779.138 1393.556 778.777 L 1393.917 778.416 1387.057 773.185 L 1380.197 767.953 1367.497 759.998 L 1354.797 752.044 1342.649 746.034 L 1330.500 740.024 1320.500 736.435 L 1310.500 732.845 1299.216 729.931 L 1287.932 727.017 1275.746 725.509 L 1263.560 724 1159.902 724 L 1056.245 724 1055.125 722.650 L 1054.005 721.301 1053.752 502.900 L 1053.500 284.500 1039.250 284.223 L 1025 283.945 1025 517.418 M 1763 501.777 L 1763 719.555 1761.443 721.777 L 1759.887 724 1656.404 724 L 1552.921 724 1543.211 725.055 L 1533.500 726.111 1522 728.653 L 1510.500 731.195 1500 734.666 L 1489.500 738.137 1473.448 746.003 L 1457.396 753.869 1444.507 762.476 L 1431.618 771.083 1424.741 776.640 L 1417.863 782.197 1418.287 782.621 L 1418.712 783.045 1437.023 777.966 L 1455.335 772.888 1474.417 768.501 L 1493.500 764.115 1507 761.558 L 1520.500 759.001 1538 756.548 L 1555.500 754.095 1571.937 752.547 L 1588.375 751 1694.687 751 L 1801 751 1801 517.500 L 1801 284 1782 284 L 1763 284 1763 501.777 M 986 549.500 L 986 780 994.250 779.999 L 1002.500 779.998 1158 781.947 L 1313.500 783.895 1346.369 784.399 L 1379.237 784.904 1378.856 784.523 L 1378.476 784.142 1361.988 779.995 L 1345.500 775.848 1323.500 771.473 L 1301.500 767.099 1287 765.049 L 1272.500 762.998 1258 761.321 L 1243.500 759.644 1131.031 759.263 L 1018.563 758.882 1017.281 757.819 L 1016 756.755 1016 537.878 L 1016 319 1001 319 L 986 319 986 549.500 M 1810 537.878 L 1810 756.755 1808.718 757.819 L 1807.436 758.883 1693.968 759.292 L 1580.500 759.701 1567 761.336 L 1553.500 762.971 1539 765.033 L 1524.500 767.095 1504 771.118 L 1483.500 775.141 1465.514 779.640 L 1447.528 784.139 1447.077 784.590 L 1446.626 785.041 1470.563 784.483 L 1494.500 783.925 1627.500 782.488 L 1760.500 781.050 1800.250 780.393 L 1840 779.736 1840 549.368 L 1840 319 1825 319 L 1810 319 1810 537.878 M 1125 344 L 1125 348 1251.500 348 L 1378 348 1378 344 L 1378 340 1251.500 340 L 1125 340 1125 344 M 1475 344 L 1475 348 1601.500 348 L 1728 348 1728 344 L 1728 340 1601.500 340 L 1475 340 1475 344 M 909.500 360.290 L 905.500 361.513 901.155 363.825 L 896.810 366.138 892.329 370.618 L 887.849 375.099 884.788 381.639 L 881.727 388.180 881.727 397.500 L 881.727 406.820 884.823 413.435 L 887.919 420.051 892.855 424.859 L 897.792 429.667 903.646 432.542 L 909.500 435.416 919.500 435.453 L 929.500 435.489 935.218 432.815 L 940.936 430.140 945.836 425.557 L 950.735 420.974 954.118 414.737 L 957.500 408.500 957.500 397.500 L 957.500 386.500 954.580 380.734 L 951.660 374.969 946.333 369.930 L 941.005 364.892 935.408 362.329 L 929.811 359.767 921.656 359.417 L 913.500 359.068 909.500 360.290 M 1083 381 L 1083 385 1230.500 385 L 1378 385 1378 381 L 1378 377 1230.500 377 L 1083 377 1083 381 M 1433 381 L 1433 385 1580.500 385 L 1728 385 1728 381 L 1728 377 1580.500 377 L 1433 377 1433 381 M 895 379.140 L 895 380.280 893.468 381.399 L 891.937 382.519 893.025 395.010 L 894.114 407.500 894.596 409.831 L 895.079 412.162 898.789 411.553 L 902.500 410.943 908.500 412.523 L 914.500 414.103 915.450 415.052 L 916.400 416 920 416 L 923.600 416 924.559 415.041 L 925.518 414.082 931.523 412.544 L 937.528 411.005 941.495 411.253 L 945.461 411.500 946.780 397.023 L 948.099 382.545 946.549 381.412 L 945 380.280 945 379.140 L 945 378 939.750 378.022 L 934.500 378.044 930.500 379.867 L 926.500 381.691 923.250 384.434 L 920 387.178 916.750 384.434 L 913.500 381.691 909.500 379.867 L 905.500 378.044 900.250 378.022 L 895 378 895 379.140 M 897.560 386.800 L 898.281 394.500 898.890 399.392 L 899.500 404.283 903.500 405.473 L 907.500 406.664 911 408.449 L 914.500 410.234 916.750 412.291 L 919 414.349 919 401.225 L 919 388.102 915.681 385.571 L 912.363 383.039 908.431 381.672 L 904.500 380.306 900.669 379.703 L 896.839 379.100 897.560 386.800 M 937.500 380.026 L 933.500 380.834 930.504 381.985 L 927.509 383.137 924.254 385.620 L 921 388.102 921 401.225 L 921 414.349 923.250 412.291 L 925.500 410.234 929 408.449 L 932.500 406.664 936.500 405.472 L 940.500 404.280 941.115 399.890 L 941.730 395.500 942.434 387.250 L 943.137 379 942.319 379.110 L 941.500 379.219 937.500 380.026 M 894.411 390 L 895.083 397.500 895.680 403.750 L 896.276 410 902.073 410 L 907.870 410 910.685 411.063 L 913.500 412.126 912.500 411.167 L 911.500 410.208 904.500 407.724 L 897.500 405.241 896.500 394.690 L 895.500 384.140 894.620 383.320 L 893.740 382.500 894.411 390 M 944.938 383 L 944.719 383.500 943.610 394.372 L 942.500 405.245 935.500 407.726 L 928.500 410.208 927.500 411.167 L 926.500 412.126 929.315 411.063 L 932.130 410 938.065 410 L 944 410 944 408.174 L 944 406.347 945.076 395.653 L 946.153 384.958 945.655 383.729 L 945.158 382.500 944.938 383 M 887.441 388.250 L 887.973 391.500 889.553 403.484 L 891.134 415.467 891.337 415.671 L 891.541 415.874 903.632 417.937 L 915.722 420 920 420 L 924.278 420 936.368 417.937 L 948.459 415.874 948.721 415.613 L 948.982 415.351 950.984 400.426 L 952.986 385.500 952.993 385.250 L 953 385 951.129 385 L 949.258 385 948.656 389.750 L 948.054 394.500 947.383 403.750 L 946.713 413 939.867 413 L 933.021 413 927.761 414.999 L 922.500 416.999 920 416.999 L 917.500 416.999 912.239 414.999 L 906.979 413 900.133 413 L 893.287 413 892.617 403.750 L 891.946 394.500 891.344 389.750 L 890.742 385 888.826 385 L 886.909 385 887.441 388.250 M 367.269 418.931 L 359.037 419.724 357.519 420.985 L 356 422.245 356.035 502.372 L 356.070 582.500 357.448 590.228 L 358.826 597.955 361.163 602.187 L 363.500 606.418 368.037 609.222 L 372.575 612.025 378.805 613.122 L 385.035 614.220 393.947 613.166 L 402.860 612.112 406.775 610.115 L 410.689 608.118 413.734 604.650 L 416.779 601.183 418.639 595.841 L 420.500 590.500 420.500 506.005 L 420.500 421.509 416.585 420.226 L 412.670 418.944 394.085 418.541 L 375.500 418.137 367.269 418.931 M 1083.190 421.750 L 1083.500 425.500 1230.750 425.753 L 1378 426.007 1378 422.003 L 1378 418 1230.440 418 L 1082.879 418 1083.190 421.750 M 1433 422 L 1433 426 1580.500 426 L 1728 426 1728 422 L 1728 418 1580.500 418 L 1433 418 1433 422 M 1730.290 444.624 L 1727.081 446.211 1723.192 451.355 L 1719.303 456.500 1714.114 465.684 L 1708.925 474.869 1704.452 484.440 L 1699.980 494.011 1696.117 503.755 L 1692.255 513.500 1685.181 534 L 1678.108 554.500 1674.187 566.750 L 1670.267 579 1670.513 579 L 1670.760 579 1675.130 573.285 L 1679.500 567.570 1680.923 565.619 L 1682.346 563.668 1681.130 564.420 L 1679.914 565.171 1689.051 552.836 L 1698.188 540.500 1708.436 525 L 1718.685 509.500 1723.773 501 L 1728.862 492.500 1732.921 484 L 1736.980 475.500 1738.990 467.590 L 1741 459.680 1741 455.308 L 1741 450.936 1739.551 447.468 L 1738.102 444 1737.133 444 L 1736.164 444 1734.832 443.519 L 1733.500 443.038 1730.290 444.624 M 1083.667 452.667 L 1083 453.333 1083 456.667 L 1083 460 1230.500 460 L 1378 460 1378 456 L 1378 452 1231.167 452 L 1084.333 452 1083.667 452.667 M 1751.087 476.590 L 1748.674 482.500 1744.229 490.500 L 1739.784 498.500 1733.194 509 L 1726.604 519.500 1718.720 530.250 L 1710.835 541 1710.018 541 L 1709.201 541 1702.601 549.865 L 1696 558.730 1696 559.676 L 1696 560.622 1683.479 576.561 L 1670.958 592.500 1667.924 598.582 L 1664.890 604.665 1662.999 614.582 L 1661.108 624.500 1659.061 637.500 L 1657.013 650.500 1655.892 660 L 1654.770 669.500 1655.313 676.815 L 1655.856 684.131 1657.451 686.565 L 1659.046 689 1661.179 689 L 1663.312 689 1668.230 683.750 L 1673.148 678.500 1684.381 663.500 L 1695.614 648.500 1705.536 634.654 L 1715.458 620.807 1725.582 608.154 L 1735.705 595.500 1743.603 587.904 L 1751.500 580.308 1752.759 579.901 L 1754.017 579.494 1753.759 525.087 L 1753.500 470.680 1751.087 476.590 M 909 489.059 L 875.500 491.842 871.750 491.921 L 868 492 868 494.389 L 868 496.777 871.675 497.467 L 875.350 498.156 879.191 499.693 L 883.033 501.230 886.860 505.578 L 890.687 509.925 892.849 517.213 L 895.012 524.500 896.061 533.075 L 897.109 541.650 896.765 614.075 L 896.421 686.500 894.222 694.365 L 892.023 702.230 889.762 706.321 L 887.500 710.411 883.500 713.186 L 879.500 715.961 874 717.339 L 868.500 718.717 868.180 720.859 L 867.861 723 921.430 723 L 975 723 975 721.067 L 975 719.135 973.250 718.655 L 971.500 718.175 967.933 717.576 L 964.367 716.978 960.433 714.420 L 956.500 711.863 953.893 708.181 L 951.286 704.500 949.676 699.500 L 948.067 694.500 947.041 688 L 946.015 681.500 946.008 583.750 L 946 486 944.250 486.138 L 942.500 486.276 909 489.059 M 1664.716 521.729 L 1662.139 527.500 1661.429 530.500 L 1660.719 533.500 1661.295 532.981 L 1661.871 532.462 1664.919 524.548 L 1667.966 516.633 1667.629 516.296 L 1667.292 515.958 1664.716 521.729 M 1658.221 552.272 L 1656 556.719 1656.021 560.110 L 1656.042 563.500 1658.516 556.500 L 1660.991 549.500 1660.716 548.663 L 1660.442 547.825 1658.221 552.272 M 1344.044 553.616 L 1340.935 556.232 1336.488 562.465 L 1332.040 568.698 1328.073 576.732 L 1324.105 584.766 1319.053 596.778 L 1314 608.791 1314 609.362 L 1314 609.933 1317.750 607.754 L 1321.500 605.575 1325.031 603.037 L 1328.561 600.500 1333.300 596.522 L 1338.038 592.545 1344.705 584.132 L 1351.372 575.719 1351.874 570.609 L 1352.375 565.500 1352.438 560.354 L 1352.500 555.209 1350.595 553.104 L 1348.690 551 1347.922 551 L 1347.153 551 1344.044 553.616 M 1460.984 553.849 L 1457.500 555.697 1453.812 560.534 L 1450.124 565.371 1450.312 565.956 L 1450.500 566.541 1448.610 570.743 L 1446.721 574.945 1445.965 574.478 L 1445.210 574.011 1444.581 575.649 L 1443.953 577.286 1444.476 577.810 L 1445 578.333 1445 577 L 1445 575.667 1445.537 576.204 L 1446.075 576.742 1444.891 579.339 L 1443.708 581.937 1442.933 581.459 L 1442.159 580.980 1438.167 591.240 L 1434.175 601.500 1432.080 607.938 L 1429.985 614.377 1430.600 616.314 L 1431.214 618.250 1430 617.500 L 1428.786 616.750 1429.412 618.721 L 1430.037 620.693 1428.463 626.836 L 1426.890 632.980 1427.195 637.740 L 1427.500 642.500 1429.614 642.802 L 1431.728 643.103 1437.614 636.675 L 1443.500 630.247 1453.753 616.152 L 1464.006 602.057 1470.003 593.076 L 1476 584.096 1475.979 582.298 L 1475.958 580.500 1473.479 572.051 L 1471 563.603 1471.070 561.551 L 1471.141 559.500 1472 561.500 L 1472.859 563.500 1472.930 562.218 L 1473 560.936 1471.585 557.548 L 1470.169 554.161 1468.150 553.080 L 1466.131 552 1465.300 552 L 1464.469 552 1460.984 553.849 M 1611.487 574.146 L 1608.041 577.172 1604.613 582.836 L 1601.186 588.500 1595.021 601.847 L 1588.856 615.195 1584.431 628.436 L 1580.007 641.677 1579.401 649.589 L 1578.795 657.500 1578.339 658.250 L 1577.882 659 1579 659 L 1580.118 659 1579.473 660.044 L 1578.828 661.088 1580.036 662.544 L 1581.245 664 1584.051 664 L 1586.857 664 1588.179 662.702 L 1589.500 661.405 1594 658.302 L 1598.500 655.200 1601.403 652.135 L 1604.306 649.071 1604.995 649.497 L 1605.683 649.922 1609.092 646.211 L 1612.500 642.500 1608.939 645.500 L 1605.378 648.500 1610.724 643.261 L 1616.069 638.023 1616.784 638.261 L 1617.500 638.498 1621.739 635.091 L 1625.977 631.683 1627.611 629.092 L 1629.245 626.500 1622.935 632.500 L 1616.625 638.500 1621.849 632.629 L 1627.074 626.758 1628.516 623.969 L 1629.958 621.180 1631.480 612.340 L 1633.002 603.500 1634.086 598.183 L 1635.169 592.867 1632.528 587.467 L 1629.886 582.067 1625.693 577.503 L 1621.500 572.939 1618.216 572.029 L 1614.933 571.120 1611.487 574.146 M 1747.063 600.681 L 1740.784 606.363 1731.210 617.431 L 1721.635 628.500 1714.991 637.500 L 1708.346 646.500 1698.241 661.500 L 1688.136 676.500 1679.621 687.185 L 1671.107 697.869 1665.888 701.995 L 1660.669 706.120 1657.584 707.733 L 1654.500 709.346 1649.929 709.291 L 1645.358 709.237 1642.429 707.714 L 1639.500 706.191 1635.614 702.346 L 1631.729 698.500 1629.807 694.227 L 1627.886 689.953 1626.460 683.227 L 1625.035 676.500 1625.079 668 L 1625.124 659.500 1625.909 652 L 1626.694 644.500 1626.317 644.053 L 1625.940 643.607 1618.220 651.186 L 1610.500 658.766 1601 666.425 L 1591.500 674.085 1585.590 677.042 L 1579.681 680 1575.037 680 L 1570.393 680 1565.249 677.437 L 1560.104 674.873 1557.039 670.246 L 1553.974 665.618 1552.737 661.559 L 1551.500 657.500 1551.619 646 L 1551.738 634.500 1553.764 628.250 L 1555.790 622 1555.481 622 L 1555.172 622 1551.418 628.750 L 1547.664 635.500 1540.956 645.500 L 1534.248 655.500 1529.592 661.500 L 1524.935 667.500 1518.854 673.693 L 1512.773 679.887 1508.397 681.943 L 1504.022 684 1499.576 684 L 1495.130 684 1492.617 683.045 L 1490.105 682.089 1485.896 678.295 L 1481.688 674.500 1478.876 668.565 L 1476.065 662.630 1474.908 657.065 L 1473.750 651.500 1474.298 640 L 1474.847 628.500 1477.486 619 L 1480.125 609.500 1480.933 605.250 L 1481.742 601 1481.451 601 L 1481.160 601 1476.256 607.750 L 1471.351 614.500 1465.654 624.187 L 1459.957 633.875 1456.153 638.687 L 1452.348 643.500 1443.924 652.414 L 1435.500 661.328 1431.600 664.164 L 1427.700 667 1426.100 666.985 L 1424.500 666.969 1426 665.919 L 1427.500 664.869 1425.500 665.391 L 1423.500 665.913 1418.137 666.497 L 1412.773 667.081 1410.387 665.518 L 1408 663.954 1408 721.525 L 1408 779.097 1414.963 773.236 L 1421.925 767.375 1430.038 761.534 L 1438.151 755.693 1448.825 749.254 L 1459.500 742.815 1470.500 737.504 L 1481.500 732.193 1491.500 728.475 L 1501.500 724.757 1513 721.827 L 1524.500 718.897 1533.500 717.292 L 1542.500 715.688 1648.250 715.297 L 1754 714.907 1754 654.953 L 1754 595 1753.670 595 L 1753.341 595 1747.063 600.681 M 1281.421 627.750 L 1279.676 632.500 1278.338 635.872 L 1277 639.244 1277 643.573 L 1277 647.902 1275.905 653.006 L 1274.811 658.110 1275.543 660.805 L 1276.274 663.500 1279.655 650 L 1283.036 636.500 1283.663 629.750 L 1284.290 623 1283.728 623 L 1283.165 623 1281.421 627.750" stroke="none" fill="#fbfbfb" fill-rule="evenodd"/></svg>